<svg width="30" height="33" viewBox="0 0 30 33" fill="none" xmlns="http://www.w3.org/2000/svg">
<path fill-rule="evenodd" clip-rule="evenodd" d="M7.35805 15.2559C13.8724 15.2559 19.1534 10.0552 19.1534 3.63986C19.1534 2.36853 18.946 1.14491 18.5627 0C23.9472 1.07589 28 5.7638 28 11.3839C28 17.7993 22.719 23 16.2047 23C10.9812 23 6.55081 19.6563 5 15.0238C5.76192 15.176 6.55051 15.2559 7.35805 15.2559Z" fill="url(#paint0_linear_16_122)"/>
<path fill-rule="evenodd" clip-rule="evenodd" d="M22.5001 32.7499C26.6422 32.7499 30 29.3921 30 25.2499C30 21.1078 26.6422 17.7499 22.5 17.7499C21.7742 17.7499 21.0725 17.853 20.4087 18.0454C19.1591 15.6417 16.6463 14 13.75 14C9.60783 14 6.24997 17.3579 6.24997 21.5L6.25005 21.5343C6.04482 21.5116 5.83627 21.5 5.625 21.5C2.5184 21.5 0 24.0183 0 27.125C0 30.0203 2.18756 32.4047 5.00005 32.7156V32.75H22.5001V32.7499Z" fill="url(#paint1_linear_16_122)"/>
<defs>
<linearGradient id="paint0_linear_16_122" x1="18.6619" y1="14.0361" x2="23.9853" y2="19.4417" gradientUnits="userSpaceOnUse">
<stop stop-color="#FBDF00"/>
<stop offset="1" stop-color="#FAAE00"/>
</linearGradient>
<linearGradient id="paint1_linear_16_122" x1="7.55208" y1="25.5" x2="16.1903" y2="36.2978" gradientUnits="userSpaceOnUse">
<stop stop-color="white"/>
<stop offset="1" stop-color="#BDE0F5"/>
</linearGradient>
</defs>
</svg>
