<svg width="30" height="20" viewBox="0 0 30 20" fill="none" xmlns="http://www.w3.org/2000/svg">
<g filter="url(#filter0_b_15_55)">
<path fill-rule="evenodd" clip-rule="evenodd" d="M13.5 15.2224V15.2224H3V15.2015C1.31252 15.0122 0 13.5603 0 11.7973C0 9.90573 1.51104 8.37229 3.375 8.37229C3.50177 8.37229 3.62691 8.37938 3.75005 8.3932L3.75 8.37233C3.75 5.85019 5.76472 3.8056 8.25 3.8056C9.98779 3.8056 11.4955 4.80525 12.2452 6.26882C12.6435 6.15171 13.0645 6.08893 13.5 6.08893C15.9853 6.08893 18 8.13352 18 10.6557C18 13.1778 15.9853 15.2224 13.5 15.2224Z" fill="url(#paint0_linear_15_55)"/>
</g>
<g filter="url(#filter1_b_15_55)">
<path fill-rule="evenodd" clip-rule="evenodd" d="M25.5 11.4168V11.4168H15V11.3959C13.3125 11.2066 12 9.7547 12 7.99173C12 6.10013 13.511 4.56669 15.375 4.56669C15.5018 4.56669 15.6269 4.57378 15.75 4.5876L15.75 4.56672C15.75 2.04459 17.7647 0 20.25 0C21.9878 0 23.4955 0.99965 24.2452 2.46322C24.6435 2.34611 25.0645 2.28333 25.5 2.28333C27.9853 2.28333 30 4.32792 30 6.85005C30 9.37218 27.9853 11.4168 25.5 11.4168Z" fill="url(#paint1_linear_15_55)"/>
</g>
<g filter="url(#filter2_b_15_55)">
<path fill-rule="evenodd" clip-rule="evenodd" d="M23.5 19.4168V19.4168H13V19.3959C11.3125 19.2066 10 17.7547 10 15.9917C10 14.1001 11.511 12.5667 13.375 12.5667C13.5018 12.5667 13.6269 12.5738 13.75 12.5876L13.75 12.5667C13.75 10.0446 15.7647 8 18.25 8C19.9878 8 21.4955 8.99965 22.2452 10.4632C22.6435 10.3461 23.0645 10.2833 23.5 10.2833C25.9853 10.2833 28 12.3279 28 14.8501C28 17.3722 25.9853 19.4168 23.5 19.4168Z" fill="url(#paint2_linear_15_55)"/>
</g>
<defs>
<filter id="filter0_b_15_55" x="-6" y="-2.1944" width="30" height="23.4168" filterUnits="userSpaceOnUse" color-interpolation-filters="sRGB">
<feFlood flood-opacity="0" result="BackgroundImageFix"/>
<feGaussianBlur in="BackgroundImage" stdDeviation="3"/>
<feComposite in2="SourceAlpha" operator="in" result="effect1_backgroundBlur_15_55"/>
<feBlend mode="normal" in="SourceGraphic" in2="effect1_backgroundBlur_15_55" result="shape"/>
</filter>
<filter id="filter1_b_15_55" x="6" y="-6" width="30" height="23.4168" filterUnits="userSpaceOnUse" color-interpolation-filters="sRGB">
<feFlood flood-opacity="0" result="BackgroundImageFix"/>
<feGaussianBlur in="BackgroundImage" stdDeviation="3"/>
<feComposite in2="SourceAlpha" operator="in" result="effect1_backgroundBlur_15_55"/>
<feBlend mode="normal" in="SourceGraphic" in2="effect1_backgroundBlur_15_55" result="shape"/>
</filter>
<filter id="filter2_b_15_55" x="4" y="2" width="30" height="23.4168" filterUnits="userSpaceOnUse" color-interpolation-filters="sRGB">
<feFlood flood-opacity="0" result="BackgroundImageFix"/>
<feGaussianBlur in="BackgroundImage" stdDeviation="3"/>
<feComposite in2="SourceAlpha" operator="in" result="effect1_backgroundBlur_15_55"/>
<feBlend mode="normal" in="SourceGraphic" in2="effect1_backgroundBlur_15_55" result="shape"/>
</filter>
<linearGradient id="paint0_linear_15_55" x1="4.53125" y1="10.8079" x2="9.8075" y2="17.3069" gradientUnits="userSpaceOnUse">
<stop stop-color="white"/>
<stop offset="1" stop-color="#BDE0F5"/>
</linearGradient>
<linearGradient id="paint1_linear_15_55" x1="16.5313" y1="7.00231" x2="21.8075" y2="13.5013" gradientUnits="userSpaceOnUse">
<stop stop-color="white"/>
<stop offset="1" stop-color="#BDE0F5"/>
</linearGradient>
<linearGradient id="paint2_linear_15_55" x1="14.5313" y1="15.0023" x2="19.8075" y2="21.5013" gradientUnits="userSpaceOnUse">
<stop stop-color="white"/>
<stop offset="1" stop-color="#BDE0F5"/>
</linearGradient>
</defs>
</svg>
