<svg width="30" height="27" viewBox="0 0 30 27" fill="none" xmlns="http://www.w3.org/2000/svg">
<g filter="url(#filter0_b_16_99)">
<path fill-rule="evenodd" clip-rule="evenodd" d="M22.4999 18.7499C22.5 18.7499 22.5 18.7499 22.5 18.7499C26.6421 18.7499 30 15.3921 30 11.2499C30 7.10779 26.6421 3.74993 22.5 3.74993C21.7742 3.74993 21.0725 3.85303 20.4087 4.04537C19.1591 1.64174 16.6462 0 13.7499 0C9.6078 0 6.24994 3.35786 6.24994 7.5L6.25002 7.53427C6.0448 7.51158 5.83626 7.49994 5.625 7.49994C2.5184 7.49994 0 10.0183 0 13.1249C0 16.0203 2.1875 18.4047 4.99993 18.7156V18.75H22.4999V18.7499Z" fill="url(#paint0_linear_16_99)"/>
</g>
<g filter="url(#filter1_i_16_99)">
<path d="M17.6 14H13L11 19.7819H14.6L12.9333 27L19 17.5303H16.3333L17.6 14Z" fill="url(#paint1_linear_16_99)"/>
</g>
<defs>
<filter id="filter0_b_16_99" x="-10" y="-10" width="50" height="38.75" filterUnits="userSpaceOnUse" color-interpolation-filters="sRGB">
<feFlood flood-opacity="0" result="BackgroundImageFix"/>
<feGaussianBlur in="BackgroundImage" stdDeviation="5"/>
<feComposite in2="SourceAlpha" operator="in" result="effect1_backgroundBlur_16_99"/>
<feBlend mode="normal" in="SourceGraphic" in2="effect1_backgroundBlur_16_99" result="shape"/>
</filter>
<filter id="filter1_i_16_99" x="9" y="14" width="10" height="13" filterUnits="userSpaceOnUse" color-interpolation-filters="sRGB">
<feFlood flood-opacity="0" result="BackgroundImageFix"/>
<feBlend mode="normal" in="SourceGraphic" in2="BackgroundImageFix" result="shape"/>
<feColorMatrix in="SourceAlpha" type="matrix" values="0 0 0 0 0 0 0 0 0 0 0 0 0 0 0 0 0 0 127 0" result="hardAlpha"/>
<feOffset dx="-2"/>
<feGaussianBlur stdDeviation="4.5"/>
<feComposite in2="hardAlpha" operator="arithmetic" k2="-1" k3="1"/>
<feColorMatrix type="matrix" values="0 0 0 0 1 0 0 0 0 1 0 0 0 0 1 0 0 0 0.5 0"/>
<feBlend mode="normal" in2="shape" result="effect1_innerShadow_16_99"/>
</filter>
<linearGradient id="paint0_linear_16_99" x1="7.55208" y1="11.5" x2="16.1903" y2="22.2978" gradientUnits="userSpaceOnUse">
<stop stop-color="white"/>
<stop offset="1" stop-color="#BDE0F5"/>
</linearGradient>
<linearGradient id="paint1_linear_16_99" x1="14.0112" y1="25.7478" x2="22.5722" y2="14.7555" gradientUnits="userSpaceOnUse">
<stop stop-color="#FF9900"/>
<stop offset="1" stop-color="#FFEE94"/>
</linearGradient>
</defs>
</svg>
